<?xml version="1.0" encoding="UTF-8"?>
<svg xmlns="http://www.w3.org/2000/svg" xmlns:xlink="http://www.w3.org/1999/xlink" viewBox="0 0 48 48" width="48px" height="48px">
<g id="surface160620077">
<path style=" stroke:none;fill-rule:nonzero;fill:rgb(100%,100%,100%);fill-opacity:1;" d="M 48.058594 10.019531 C 46.285156 10.808594 44.386719 11.335938 42.386719 11.578125 C 44.425781 10.355469 45.992188 8.417969 46.730469 6.117188 C 44.824219 7.246094 42.703125 8.066406 40.457031 8.507812 C 38.660156 6.589844 36.09375 5.390625 33.253906 5.390625 C 27.800781 5.390625 23.382812 9.808594 23.382812 15.261719 C 23.382812 16.035156 23.472656 16.789062 23.640625 17.511719 C 15.433594 17.101562 8.164062 13.171875 3.292969 7.195312 C 2.441406 8.660156 1.957031 10.355469 1.957031 12.160156 C 1.957031 15.585938 3.699219 18.609375 6.347656 20.382812 C 4.730469 20.328125 3.207031 19.882812 1.875 19.144531 C 1.875 19.183594 1.875 19.226562 1.875 19.265625 C 1.875 24.050781 5.28125 28.039062 9.792969 28.949219 C 8.964844 29.175781 8.09375 29.296875 7.191406 29.296875 C 6.554688 29.296875 5.9375 29.234375 5.332031 29.113281 C 6.59375 33.035156 10.238281 35.894531 14.554688 35.972656 C 11.179688 38.621094 6.921875 40.195312 2.296875 40.195312 C 1.496094 40.195312 0.710938 40.152344 -0.0546875 40.058594 C 4.308594 42.863281 9.5 44.492188 15.074219 44.492188 C 33.234375 44.492188 43.164062 29.453125 43.164062 16.410156 C 43.164062 15.984375 43.152344 15.550781 43.136719 15.132812 C 45.0625 13.738281 46.734375 12 48.058594 10.019531 Z M 48.058594 10.019531 "/>
</g>
</svg>
